<svg xmlns="http://www.w3.org/2000/svg" xmlns:xlink="http://www.w3.org/1999/xlink" width="512" zoomAndPan="magnify" viewBox="0 0 384 383.999986" height="512" preserveAspectRatio="xMidYMid meet" version="1.0"><path fill="#30475e" d="M 185.464844 36.332031 C 183.355469 37.074219 180.8125 38.253906 179.695312 38.878906 C 178.636719 39.5625 175.71875 41.359375 173.238281 42.914062 C 170.753906 44.402344 165.664062 47.632812 161.875 50.050781 C 154.859375 54.585938 153.183594 55.640625 142.941406 61.785156 C 135.113281 66.507812 135.367188 66.382812 129.589844 69.921875 C 126.859375 71.660156 124.066406 73.335938 123.382812 73.769531 C 120.527344 75.382812 92.710938 92.707031 82.964844 98.851562 C 80.914062 100.21875 78.992188 101.273438 78.679688 101.273438 C 78.371094 101.273438 77.5625 101.832031 76.816406 102.515625 C 76.136719 103.136719 74.273438 104.378906 72.78125 105.1875 C 62.847656 110.585938 58.253906 114.125 54.902344 119.15625 C 49.75 126.730469 50.121094 121.203125 49.933594 190.800781 C 49.8125 251.832031 49.8125 252.824219 51.050781 257.855469 C 53.226562 266.296875 56.699219 270.082031 68.871094 277.410156 C 72.71875 279.769531 78.433594 283.308594 81.601562 285.355469 C 88.738281 289.953125 91.410156 290.324219 94.636719 287.035156 L 96.6875 285.046875 L 96.996094 263.75 L 97.304688 242.519531 L 99.046875 239.351562 C 102.273438 233.515625 104.074219 231.777344 112.828125 226.1875 C 113.507812 225.816406 114.753906 225.070312 115.621094 224.699219 C 117.234375 223.890625 130.398438 215.882812 131.453125 215.078125 C 131.824219 214.765625 134.992188 212.78125 138.59375 210.667969 C 142.195312 208.496094 147.65625 205.207031 150.699219 203.28125 C 153.804688 201.417969 157.34375 199.242188 158.582031 198.5625 C 159.890625 197.878906 161.6875 196.453125 162.621094 195.519531 C 164.234375 193.84375 164.359375 193.285156 164.359375 188.816406 C 164.359375 184.09375 164.296875 183.847656 162.25 181.738281 C 161.132812 180.558594 158.582031 178.632812 156.660156 177.515625 C 154.734375 176.335938 149.335938 173.042969 144.613281 170.1875 C 139.898438 167.273438 135.054688 164.292969 133.75 163.484375 C 130.644531 161.558594 128.847656 160.878906 127.167969 160.878906 C 126.359375 160.878906 122.574219 162.859375 118.664062 165.285156 C 110.28125 170.5625 107.984375 171.121094 103.515625 168.882812 C 99.167969 166.710938 97.429688 164.042969 97.121094 159.324219 C 96.933594 156.34375 97.121094 154.976562 98.175781 152.929688 C 99.789062 149.699219 101.835938 148.273438 116.550781 139.519531 C 123.070312 135.605469 132.011719 130.265625 136.421875 127.539062 C 140.890625 124.804688 147.410156 120.828125 151.007812 118.65625 C 154.613281 116.484375 158.273438 114.25 159.144531 113.691406 C 160.015625 113.070312 162.125 111.828125 163.800781 110.898438 C 165.476562 110.027344 168.519531 108.167969 170.566406 106.859375 C 179.632812 101.027344 187.082031 96.804688 189.253906 96.179688 C 194.59375 94.753906 199.75 96.496094 211.230469 103.753906 C 217.316406 107.542969 225.949219 112.882812 227.871094 114 C 230.914062 115.804688 244.324219 123.996094 247.554688 126.105469 C 249.601562 127.410156 254.382812 130.390625 258.109375 132.625 C 261.894531 134.921875 266.921875 138.027344 269.28125 139.519531 C 271.707031 141.070312 274.1875 142.5625 274.871094 142.871094 C 275.554688 143.179688 278.101562 144.734375 280.460938 146.285156 C 288.40625 151.378906 298.089844 157.148438 298.710938 157.148438 C 299.023438 157.148438 299.394531 157.398438 299.515625 157.648438 C 299.707031 158.207031 309.453125 164.476562 317.960938 169.570312 C 321.433594 171.617188 323.296875 172.359375 325.90625 172.546875 C 330.128906 172.921875 333.664062 171.429688 335.464844 168.574219 C 336.644531 166.648438 336.707031 165.71875 336.523438 147.09375 L 336.335938 127.660156 L 334.039062 122.878906 C 332.796875 120.210938 330.558594 116.859375 329.070312 115.304688 C 326.714844 112.945312 314.667969 104.8125 307.777344 100.964844 C 306.410156 100.15625 303.058594 98.105469 300.324219 96.433594 C 297.59375 94.691406 289.523438 89.722656 282.320312 85.378906 C 269.78125 77.804688 261.089844 72.464844 257.796875 70.230469 C 256.929688 69.671875 255.003906 68.554688 253.453125 67.6875 C 251.898438 66.878906 250.535156 66.007812 250.347656 65.824219 C 249.910156 65.265625 243.578125 61.289062 240.039062 59.304688 C 238.367188 58.371094 233.644531 55.519531 229.546875 52.910156 C 225.453125 50.242188 220.855469 47.445312 219.304688 46.636719 C 217.75 45.769531 215.269531 44.21875 213.71875 43.160156 C 201.984375 35.152344 193.972656 33.230469 185.464844 36.332031 Z M 185.464844 36.332031 " fill-opacity="1" fill-rule="nonzero"/><path fill="#f05454" d="M 255.003906 166.898438 C 252.519531 167.890625 244.140625 172.613281 243.515625 173.292969 C 243.332031 173.476562 240.972656 174.96875 238.238281 176.644531 C 235.507812 178.261719 230.601562 181.242188 227.375 183.226562 C 224.144531 185.273438 220.238281 187.632812 218.683594 188.566406 C 217.132812 189.496094 215.765625 190.429688 215.578125 190.675781 C 215.390625 190.925781 211.792969 193.160156 207.507812 195.644531 C 197.945312 201.230469 195.773438 202.535156 191.058594 205.578125 C 189.007812 206.878906 184.289062 209.859375 180.5 212.09375 C 176.773438 214.332031 169.886719 218.550781 165.292969 221.410156 C 160.695312 224.265625 155.417969 227.558594 153.617188 228.675781 C 149.707031 231.15625 144.800781 234.199219 138.839844 237.984375 C 136.421875 239.539062 133.8125 241.027344 133.003906 241.273438 C 130.957031 241.960938 124.066406 249.039062 123.132812 251.519531 C 122.699219 252.699219 122.015625 254.25 121.644531 254.933594 C 120.648438 256.613281 120.277344 294.730469 121.144531 299.699219 C 122.699219 307.832031 126.484375 312.175781 138.035156 319.132812 C 142.253906 321.675781 149.644531 326.144531 154.421875 329.125 C 182.613281 346.570312 182.738281 346.699219 186.460938 347.628906 C 195.589844 349.988281 200.058594 348.933594 212.039062 341.484375 C 214.710938 339.804688 217.070312 338.441406 217.253906 338.441406 C 217.378906 338.441406 218.683594 337.632812 220.113281 336.640625 C 223.773438 334.09375 237.371094 325.773438 246.621094 320.375 C 248.484375 319.316406 250.164062 318.261719 250.347656 318.015625 C 250.535156 317.828125 251.214844 317.332031 251.898438 316.960938 C 255.003906 315.28125 256.304688 314.476562 257.175781 313.855469 C 257.675781 313.421875 259.535156 312.367188 261.210938 311.433594 C 262.949219 310.5625 270.214844 306.15625 277.355469 301.8125 C 290.578125 293.675781 298.589844 288.773438 316.46875 277.96875 C 328.324219 270.765625 332.484375 266.917969 334.84375 260.773438 C 336.335938 256.859375 336.335938 256.550781 336.335938 235.6875 L 336.335938 214.582031 L 334.164062 210.605469 C 333.046875 208.433594 330.933594 205.515625 329.503906 204.089844 C 327.457031 201.976562 316.46875 194.773438 307.960938 189.933594 C 306.96875 189.371094 305.109375 188.253906 303.863281 187.386719 C 300.203125 184.964844 278.035156 171.304688 271.890625 167.707031 C 268.476562 165.71875 258.914062 165.222656 255.003906 166.898438 Z M 266.429688 224.203125 C 268.164062 224.515625 270.398438 225.382812 271.453125 226.125 C 273.628906 227.804688 275.800781 232.148438 275.800781 234.878906 C 275.800781 237.054688 274.125 241.027344 272.261719 243.261719 C 271.269531 244.503906 266.800781 247.792969 266.175781 247.792969 C 265.992188 247.792969 264.441406 248.726562 262.578125 249.78125 C 260.777344 250.898438 258.792969 252.144531 258.109375 252.578125 C 252.023438 256.175781 247.554688 258.910156 244.140625 261.144531 C 239.855469 263.9375 233.089844 268.035156 223.960938 273.3125 C 220.917969 275.113281 216.324219 277.90625 213.78125 279.582031 C 211.230469 281.199219 209.058594 282.5625 208.875 282.5625 C 208.75 282.5625 206.640625 283.804688 204.15625 285.355469 C 201.734375 286.847656 198.257812 288.710938 196.457031 289.453125 C 193.539062 290.695312 192.917969 290.757812 190.558594 290.078125 C 184.847656 288.335938 181.433594 284.238281 181.433594 278.960938 C 181.433594 273.75 183.417969 270.707031 189.195312 267.230469 C 189.875 266.792969 191.921875 265.550781 193.785156 264.496094 C 195.648438 263.378906 199.6875 260.835938 202.789062 258.910156 C 205.894531 256.921875 209.867188 254.5625 211.542969 253.632812 C 213.28125 252.761719 215.082031 251.644531 215.578125 251.210938 C 216.078125 250.773438 219.304688 248.789062 222.71875 246.804688 C 226.132812 244.816406 229.238281 242.953125 229.546875 242.644531 C 229.921875 242.390625 232.964844 240.46875 236.378906 238.421875 C 239.792969 236.371094 245.132812 233.144531 248.175781 231.21875 C 256.492188 226.066406 259.164062 224.636719 261.210938 224.140625 C 262.269531 223.890625 263.136719 223.707031 263.136719 223.644531 C 263.199219 223.582031 264.625 223.828125 266.429688 224.203125 Z M 266.429688 224.203125 " fill-opacity="1" fill-rule="nonzero"/></svg>